<svg width="601" height="367" xmlns="http://www.w3.org/2000/svg" xmlns:xlink="http://www.w3.org/1999/xlink" xml:space="preserve" overflow="hidden"><defs><clipPath id="clip0"><rect x="417" y="17" width="601" height="367"/></clipPath></defs><g clip-path="url(#clip0)" transform="translate(-417 -17)"><rect x="417" y="17" width="600" height="366" fill="#FFFFFF"/><g><path d="M456.5 274.5 998.5 274.5M456.5 241.5 998.5 241.5M456.5 208.5 998.5 208.5M456.5 176.5 998.5 176.5M456.5 143.5 998.5 143.5M456.5 111.5 998.5 111.5M456.5 78.5 998.5 78.5" stroke="#D9D9D9" stroke-width="1.25" stroke-linejoin="round" stroke-miterlimit="10" fill="none"/></g><g><path d="M456.5 306.5 998.5 306.5" stroke="#D9D9D9" stroke-width="1.25" stroke-linejoin="round" stroke-miterlimit="10" fill="none" fill-rule="evenodd"/></g><g><path d="M547 160 727 127 908 193" stroke="#156082" stroke-width="3.75" stroke-linecap="round" stroke-linejoin="round" stroke-miterlimit="10" fill="none"/></g><g><path d="M547 144 727 176 908 111" stroke="#E97132" stroke-width="3.75" stroke-linecap="round" stroke-linejoin="round" stroke-miterlimit="10" fill="none"/></g><g><text fill="#595959" font-family="Aptos Narrow,Aptos Narrow_MSFontService,sans-serif" font-weight="400" font-stretch="semi-condensed" font-size="15" transform="matrix(1 0 0 1 435.1 311)">0</text></g><g><text fill="#595959" font-family="Aptos Narrow,Aptos Narrow_MSFontService,sans-serif" font-weight="400" font-stretch="semi-condensed" font-size="15" transform="matrix(1 0 0 1 435.1 278)">2</text></g><g><text fill="#595959" font-family="Aptos Narrow,Aptos Narrow_MSFontService,sans-serif" font-weight="400" font-stretch="semi-condensed" font-size="15" transform="matrix(1 0 0 1 435.1 245)">4</text></g><g><text fill="#595959" font-family="Aptos Narrow,Aptos Narrow_MSFontService,sans-serif" font-weight="400" font-stretch="semi-condensed" font-size="15" transform="matrix(1 0 0 1 435.1 213)">6</text></g><g><text fill="#595959" font-family="Aptos Narrow,Aptos Narrow_MSFontService,sans-serif" font-weight="400" font-stretch="semi-condensed" font-size="15" transform="matrix(1 0 0 1 435.1 180)">8</text></g><g><text fill="#595959" font-family="Aptos Narrow,Aptos Narrow_MSFontService,sans-serif" font-weight="400" font-stretch="semi-condensed" font-size="15" transform="matrix(1 0 0 1 427.5 148)">10</text></g><g><text fill="#595959" font-family="Aptos Narrow,Aptos Narrow_MSFontService,sans-serif" font-weight="400" font-stretch="semi-condensed" font-size="15" transform="matrix(1 0 0 1 427.5 115)">12</text></g><g><text fill="#595959" font-family="Aptos Narrow,Aptos Narrow_MSFontService,sans-serif" font-weight="400" font-stretch="semi-condensed" font-size="15" transform="matrix(1 0 0 1 427.5 83)">14</text></g><g><text fill="#595959" font-family="Aptos Narrow,Aptos Narrow_MSFontService,sans-serif" font-weight="400" font-stretch="semi-condensed" font-size="15" transform="matrix(1 0 0 1 509.325 330)">Математика</text></g><g><text fill="#595959" font-family="Aptos Narrow,Aptos Narrow_MSFontService,sans-serif" font-weight="400" font-stretch="semi-condensed" font-size="15" transform="matrix(1 0 0 1 706.445 330)">Історія</text></g><g><text fill="#595959" font-family="Aptos Narrow,Aptos Narrow_MSFontService,sans-serif" font-weight="400" font-stretch="semi-condensed" font-size="15" transform="matrix(1 0 0 1 883.261 330)">Біологія</text></g><g><text fill="#595959" font-family="Aptos Narrow,Aptos Narrow_MSFontService,sans-serif" font-weight="400" font-stretch="semi-condensed" font-size="23" transform="matrix(1 0 0 1 670.992 51)">Динаміка</text></g><g><path d="M616 359 648 359" stroke="#156082" stroke-width="3.75" stroke-linecap="round" stroke-linejoin="round" stroke-miterlimit="10" fill="none" fill-rule="evenodd"/></g><g><text fill="#595959" font-family="Aptos Narrow,Aptos Narrow_MSFontService,sans-serif" font-weight="400" font-stretch="semi-condensed" font-size="15" transform="matrix(1 0 0 1 650.954 363)">І семестр</text></g><g><path d="M727 359 759 359" stroke="#E97132" stroke-width="3.75" stroke-linecap="round" stroke-linejoin="round" stroke-miterlimit="10" fill="none" fill-rule="evenodd"/></g><g><text fill="#595959" font-family="Aptos Narrow,Aptos Narrow_MSFontService,sans-serif" font-weight="400" font-stretch="semi-condensed" font-size="15" transform="matrix(1 0 0 1 762.113 363)">ІІ семестр</text></g><rect x="417.5" y="17.5" width="600" height="366" stroke="#D9D9D9" stroke-width="1.25" stroke-linejoin="round" stroke-miterlimit="10" fill="none"/></g></svg>